HIERARCHY
ROOT Hips
{
	OFFSET -0.001795 -0.223333 0.028219
	CHANNELS 6 Xposition Yposition Zposition Zrotation Yrotation Xrotation 
	JOINT LeftUpLeg
	{
		OFFSET 0.069520 -0.091406 -0.006815
		CHANNELS 3 Zrotation Yrotation Xrotation
		JOINT LeftLeg
		{
			OFFSET 0.034277 -0.375199 -0.004496
			CHANNELS 3 Zrotation Yrotation Xrotation
			JOINT LeftFoot
			{
				OFFSET -0.013596 -0.397961 -0.043693
				CHANNELS 3 Zrotation Yrotation Xrotation
				JOINT LeftToe
				{
					OFFSET 0.026358 -0.055791 0.119288
					CHANNELS 3 Zrotation Yrotation Xrotation
					End Site
					{
						OFFSET 0.000000 0.000000 0.000000
					}
				}
			}
		}
	}
	JOINT RightUpLeg
	{
		OFFSET -0.067670 -0.090522 -0.004320
		CHANNELS 3 Zrotation Yrotation Xrotation
		JOINT RightLeg
		{
			OFFSET -0.038290 -0.382569 -0.008850
			CHANNELS 3 Zrotation Yrotation Xrotation
			JOINT RightFoot
			{
				OFFSET 0.015774 -0.398415 -0.042312
				CHANNELS 3 Zrotation Yrotation Xrotation
				JOINT RightToe
				{
					OFFSET -0.025372 -0.048144 0.123348
					CHANNELS 3 Zrotation Yrotation Xrotation
					End Site
					{
						OFFSET 0.000000 0.000000 0.000000
					}
				}
			}
		}
	}
	JOINT Spine
	{
		OFFSET -0.002533 0.108963 -0.026696
		CHANNELS 3 Zrotation Yrotation Xrotation
		JOINT Spine1
		{
			OFFSET 0.005487 0.135180 0.001092
			CHANNELS 3 Zrotation Yrotation Xrotation
			JOINT Spine2
			{
				OFFSET 0.001457 0.052922 0.025425
				CHANNELS 3 Zrotation Yrotation Xrotation
				JOINT Neck
				{
					OFFSET -0.002778 0.213870 -0.042857
					CHANNELS 3 Zrotation Yrotation Xrotation
					JOINT Head
					{
						OFFSET 0.005152 0.064970 0.051349
						CHANNELS 3 Zrotation Yrotation Xrotation
						End Site
						{
							OFFSET 0.000000 0.000000 0.000000
						}
					}
				}
				JOINT LeftShoulder
				{
					OFFSET 0.078845 0.121749 -0.034090
					CHANNELS 3 Zrotation Yrotation Xrotation
					JOINT LeftArm
					{
						OFFSET 0.090977 0.030469 -0.008868
						CHANNELS 3 Zrotation Yrotation Xrotation
						JOINT LeftForeArm
						{
							OFFSET 0.259612 -0.012772 -0.027456
							CHANNELS 3 Zrotation Yrotation Xrotation
							JOINT LeftHand
							{
								OFFSET 0.249234 0.008986 -0.001171
								CHANNELS 3 Zrotation Yrotation Xrotation
								End Site
								{
									OFFSET 0.000000 0.000000 0.000000
								}
							}
						}
					}
				}
				JOINT RightShoulder
				{
					OFFSET -0.081759 0.118833 -0.038615
					CHANNELS 3 Zrotation Yrotation Xrotation
					JOINT RightArm
					{
						OFFSET -0.096012 0.032551 -0.009143
						CHANNELS 3 Zrotation Yrotation Xrotation
						JOINT RightForeArm
						{
							OFFSET -0.253742 -0.013329 -0.021401
							CHANNELS 3 Zrotation Yrotation Xrotation
							JOINT RightHand
							{
								OFFSET -0.255298 0.007772 -0.005559
								CHANNELS 3 Zrotation Yrotation Xrotation
								End Site
								{
									OFFSET 0.000000 0.000000 0.000000
								}
							}
						}
					}
				}
			}
		}
	}
}
MOTION
Frames: 8
Frame Time: 0.050000
0.913278 0.961959 0.664760 -13.529989 83.919154 -18.522458 0.674069 -0.568496 -6.806917 0.126302 -2.425512 14.476650 -2.665035 5.271931 12.246821 0.000000 0.000000 0.000000 -6.914624 -2.975127 -1.846446 -27.847457 -9.504274 48.690688 18.438215 20.341809 27.735334 0.000000 0.000000 0.000000 2.852590 -2.297355 15.009311 -4.157516 2.079144 -26.082601 2.550888 14.958806 33.279079 14.486077 4.012435 -24.768655 0.000000 0.000000 0.000000 -12.645182 -9.640563 -16.921545 -46.384880 12.707187 -9.141815 -90.506328 -58.859696 40.705976 0.000000 0.000000 0.000000 25.623581 -11.180550 13.220148 52.769149 23.829126 1.896550 14.442162 55.458004 17.225383 0.000000 0.000000 0.000000 
0.953429 0.969147 0.655270 -21.997667 84.918496 -27.692827 -0.588854 -0.269957 -1.980050 1.088103 -1.833918 11.923995 -1.331316 5.821183 11.699326 0.000000 0.000000 0.000000 -4.563603 -2.468922 -6.389370 -23.433175 -11.013211 47.297187 15.222043 20.342405 15.939938 0.000000 0.000000 0.000000 3.380082 -2.680809 15.884907 -3.748556 2.094177 -26.061493 1.959546 13.878716 33.025280 14.494730 3.530464 -23.519927 0.000000 0.000000 0.000000 -12.335668 -9.975432 -16.268657 -47.485708 11.792167 -9.238054 -85.199850 -60.235878 37.734941 0.000000 0.000000 0.000000 25.064294 -10.867981 12.815978 54.118433 23.837397 2.670891 14.187261 55.699517 17.219832 0.000000 0.000000 0.000000 
0.993215 0.972439 0.647966 -39.942682 86.329605 -45.897989 -1.224616 -0.406441 2.107245 1.721996 -1.302970 9.279382 -1.105984 5.737203 11.756378 0.000000 0.000000 0.000000 -2.946523 -2.555973 -10.645241 -16.239266 -11.113346 40.951995 10.150893 14.517640 12.086351 0.000000 0.000000 0.000000 4.040313 -2.907669 16.118825 -3.395831 1.986112 -26.703300 0.844502 12.259775 33.281554 14.100078 3.488955 -22.991204 0.000000 0.000000 0.000000 -11.556188 -9.431152 -15.425713 -47.954997 10.196317 -9.280073 -79.179342 -62.311707 35.225618 0.000000 0.000000 0.000000 25.049501 -11.345169 12.197404 54.727003 23.200536 2.732878 16.231867 55.145040 18.148443 0.000000 0.000000 0.000000 
1.033049 0.972732 0.642757 -53.975419 87.059961 -60.673215 -2.030499 -0.950161 6.997271 1.855910 -0.892011 6.915048 0.056348 5.912189 10.832630 0.000000 0.000000 0.000000 -1.987228 -2.791868 -13.197015 -9.182175 -8.569562 30.952160 6.030379 8.741102 10.177919 0.000000 0.000000 0.000000 4.280090 -3.105315 16.609182 -3.294397 1.845214 -27.803872 0.519418 12.045906 34.506773 14.999753 3.047081 -23.008902 0.000000 0.000000 0.000000 -10.450927 -9.950817 -14.506176 -48.047877 8.152073 -8.773687 -73.836258 -63.168993 31.282802 0.000000 0.000000 0.000000 25.291250 -12.278211 11.827713 55.677885 23.270565 3.047158 18.304588 54.053850 18.940480 0.000000 0.000000 0.000000 
1.073124 0.970377 0.639130 -96.424840 87.693872 -103.378216 -3.233811 -1.805029 11.521285 2.382068 -0.517523 3.789996 1.704389 7.002063 10.861280 0.000000 0.000000 0.000000 -1.600363 -2.960451 -13.901499 -3.774062 -4.792213 18.816461 2.245839 3.391973 11.174861 0.000000 0.000000 0.000000 4.415146 -2.939976 15.979202 -3.877853 2.010117 -26.615812 0.185489 9.937263 33.577976 13.764048 3.525519 -22.587016 0.000000 0.000000 0.000000 -9.465375 -10.713468 -13.017111 -49.009806 7.162452 -9.120065 -70.070000 -64.464053 29.215933 0.000000 0.000000 0.000000 23.532618 -11.330319 11.211690 57.378937 21.061247 3.267905 20.350990 52.753200 19.295654 0.000000 0.000000 0.000000 
1.113672 0.967298 0.637270 -140.517112 87.156840 -147.420018 -4.413335 -2.621439 14.762771 2.789722 -0.415873 2.677192 2.480581 7.246231 10.657385 0.000000 0.000000 0.000000 -1.796088 -3.384981 -14.411695 -1.379462 -1.913360 8.176882 1.140117 2.135202 13.191910 0.000000 0.000000 0.000000 4.427691 -2.844522 15.678785 -4.201873 1.851446 -27.269790 -0.228945 8.835543 34.310552 14.240409 3.132751 -22.079683 0.000000 0.000000 0.000000 -8.507443 -11.575256 -12.287882 -48.936233 6.228073 -8.974678 -67.757228 -66.175405 28.150547 0.000000 0.000000 0.000000 23.383659 -11.618666 11.257708 57.854120 21.027721 3.588510 20.440308 51.589416 18.495185 0.000000 0.000000 0.000000 
1.154998 0.963291 0.637298 -152.263736 87.038976 -158.854924 -5.579121 -3.430773 17.842180 3.140758 -0.308910 1.326459 3.432574 8.515292 11.569003 0.000000 0.000000 0.000000 -1.990138 -3.486530 -14.471493 0.530385 -1.206143 1.931039 1.260654 3.106685 15.926967 0.000000 0.000000 0.000000 5.007132 -2.695541 14.873782 -5.047871 1.895706 -26.739561 -0.247884 8.853623 33.936338 14.082241 2.554931 -20.511626 0.000000 0.000000 0.000000 -7.821149 -12.270172 -11.387236 -48.979345 6.058617 -9.264797 -66.118198 -66.100235 26.595354 0.000000 0.000000 0.000000 23.992085 -11.050869 12.357600 58.337592 22.170307 4.009113 16.464751 49.421008 14.866228 0.000000 0.000000 0.000000 
1.197008 0.959321 0.639542 -165.075541 87.121409 -171.284081 -6.586434 -3.996604 19.915642 2.961781 -0.339815 2.042912 4.466367 9.501134 12.005927 0.000000 0.000000 0.000000 -1.417691 -3.288201 -14.648638 0.238894 -1.027366 1.337742 1.672164 4.784202 21.349840 0.000000 0.000000 0.000000 5.236507 -2.559172 14.288357 -5.050540 2.038936 -25.769877 -1.034657 8.708106 32.984347 13.982825 1.634437 -18.757064 0.000000 0.000000 0.000000 -7.804474 -12.277485 -11.282654 -48.343742 5.751794 -8.844092 -63.573143 -66.530551 25.042066 0.000000 0.000000 0.000000 24.509609 -10.457547 13.293006 58.921154 22.915532 4.263559 13.056991 48.558539 12.557807 0.000000 0.000000 0.000000 
